<mxfile host="app.diagrams.net" agent="Mozilla/5.0 (Windows NT 10.0; Win64; x64) AppleWebKit/537.36 (KHTML, like Gecko) Chrome/132.0.0.0 Safari/537.36 Edg/132.0.0.0" version="26.0.5">
  <diagram name="Page-1" id="Nvl3WTjYv6mFyARh63ZN">
    <mxGraphModel dx="830" dy="479" grid="0" gridSize="10" guides="1" tooltips="1" connect="1" arrows="1" fold="1" page="1" pageScale="1" pageWidth="827" pageHeight="1169" math="0" shadow="0">
      <root>
        <mxCell id="0" />
        <mxCell id="1" parent="0" />
        <mxCell id="tRaalFtPgh5SGt39OWhi-3" style="edgeStyle=orthogonalEdgeStyle;rounded=0;orthogonalLoop=1;jettySize=auto;html=1;entryX=0.5;entryY=0;entryDx=0;entryDy=0;" edge="1" parent="1" source="tRaalFtPgh5SGt39OWhi-1" target="tRaalFtPgh5SGt39OWhi-2">
          <mxGeometry relative="1" as="geometry" />
        </mxCell>
        <mxCell id="tRaalFtPgh5SGt39OWhi-1" value="Start" style="strokeWidth=2;html=1;shape=mxgraph.flowchart.start_1;whiteSpace=wrap;fillColor=#d5e8d4;strokeColor=#82b366;" vertex="1" parent="1">
          <mxGeometry x="393" y="103" width="43" height="26" as="geometry" />
        </mxCell>
        <mxCell id="tRaalFtPgh5SGt39OWhi-8" style="edgeStyle=orthogonalEdgeStyle;rounded=0;orthogonalLoop=1;jettySize=auto;html=1;" edge="1" parent="1" source="tRaalFtPgh5SGt39OWhi-2" target="tRaalFtPgh5SGt39OWhi-4">
          <mxGeometry relative="1" as="geometry" />
        </mxCell>
        <mxCell id="tRaalFtPgh5SGt39OWhi-10" value="" style="edgeStyle=orthogonalEdgeStyle;rounded=0;orthogonalLoop=1;jettySize=auto;html=1;" edge="1" parent="1" source="tRaalFtPgh5SGt39OWhi-2" target="tRaalFtPgh5SGt39OWhi-9">
          <mxGeometry relative="1" as="geometry" />
        </mxCell>
        <mxCell id="tRaalFtPgh5SGt39OWhi-2" value="Fee&lt;div&gt;Quote&lt;/div&gt;" style="rounded=1;whiteSpace=wrap;html=1;absoluteArcSize=1;arcSize=14;strokeWidth=2;" vertex="1" parent="1">
          <mxGeometry x="383.5" y="156" width="62" height="41" as="geometry" />
        </mxCell>
        <mxCell id="tRaalFtPgh5SGt39OWhi-4" value="Create PDT&lt;div&gt;Email-list&lt;/div&gt;" style="whiteSpace=wrap;html=1;rounded=1;arcSize=14;strokeWidth=2;" vertex="1" parent="1">
          <mxGeometry x="492" y="156" width="81" height="41" as="geometry" />
        </mxCell>
        <mxCell id="tRaalFtPgh5SGt39OWhi-12" value="Yes" style="edgeStyle=orthogonalEdgeStyle;rounded=0;orthogonalLoop=1;jettySize=auto;html=1;" edge="1" parent="1" source="tRaalFtPgh5SGt39OWhi-9" target="tRaalFtPgh5SGt39OWhi-11">
          <mxGeometry relative="1" as="geometry" />
        </mxCell>
        <mxCell id="tRaalFtPgh5SGt39OWhi-9" value="Is DBB" style="rhombus;whiteSpace=wrap;html=1;rounded=1;arcSize=14;strokeWidth=2;fillColor=#fff2cc;strokeColor=#d6b656;" vertex="1" parent="1">
          <mxGeometry x="387" y="236" width="55" height="43" as="geometry" />
        </mxCell>
        <mxCell id="tRaalFtPgh5SGt39OWhi-11" value="Comment&lt;div&gt;on SSOW&lt;/div&gt;" style="whiteSpace=wrap;html=1;rounded=1;arcSize=14;strokeWidth=2;" vertex="1" parent="1">
          <mxGeometry x="379" y="317" width="71" height="41" as="geometry" />
        </mxCell>
      </root>
    </mxGraphModel>
  </diagram>
</mxfile>
